{
  "source": "C:\\Users\\Peter\\Desktop\\stuff\\MIUN\\quantitative_research\\video_compression\\videos\\BVI-HD\\BVI-HD_CDVL_videos\\ORIG\\Diver_1920x1080_30fps.mp4",
  "output": "C:\\Users\\Peter\\Desktop\\stuff\\MIUN\\quantitative_research\\video_compression\\compressed_videos\\BVI-HD\\h264\\2.5\\Diver_1920x1080_30fps_h264.mp4",
  "codec": "h264",
  "ok": "Input #0, mov,mp4,m4a,3gp,3g2,mj2, from 'C:\\Users\\Peter\\Desktop\\stuff\\MIUN\\quantitative_research\\video_compression\\videos\\BVI-HD\\BVI-HD_CDVL_videos\\ORIG\\Diver_1920x1080_30fps.mp4':\n  Metadata:\n    major_brand     : isom\n    minor_version   : 512\n    compatible_brands: isomiso2avc1mp41\n    encoder         : Lavf54.28.101\n  Duration: 00:00:05.00, start: 0.000000, bitrate: 196798 kb/s\n  Stream #0:0[0x1](und): Video: h264 (High 4:4:4 Predictive) (avc1 / 0x31637661), yuv420p(progressive), 1920x1080, 196794 kb/s, 30 fps, 30 tbr, 30 tbn (default)\n    Metadata:\n      handler_name    : VideoHandler\n      vendor_id       : [0][0][0][0]\n[out#0/mp4 @ 000001fd9e779b40] Codec AVOption b:a (set bitrate (in bits/s)) has not been used for any stream. The most likely reason is either wrong type (e.g. a video option with no video streams) or that it is a private option of some decoder which was not actually used for any stream.\nStream mapping:\n  Stream #0:0 -> #0:0 (h264 (native) -> h264 (libx264))\nPress [q] to stop, [?] for help\n[libx264 @ 000001fd9e77cb40] using cpu capabilities: MMX2 SSE2Fast SSSE3 SSE4.2 AVX FMA3 BMI2 AVX2\n[libx264 @ 000001fd9e77cb40] profile High, level 5.0, 4:2:0, 8-bit\n[libx264 @ 000001fd9e77cb40] 264 - core 165 r3222 b35605a - H.264/MPEG-4 AVC codec - Copyleft 2003-2025 - http://www.videolan.org/x264.html - options: cabac=1 ref=5 deblock=1:0:0 analyse=0x3:0x113 me=hex subme=8 psy=1 psy_rd=1.00:0.00 mixed_ref=1 me_range=16 chroma_me=1 trellis=2 8x8dct=1 cqm=0 deadzone=21,11 fast_pskip=1 chroma_qp_offset=-2 threads=18 lookahead_threads=3 sliced_threads=0 nr=0 decimate=1 interlaced=0 bluray_compat=0 constrained_intra=0 bframes=3 b_pyramid=2 b_adapt=1 b_bias=0 direct=3 weightb=1 open_gop=0 weightp=2 keyint=250 keyint_min=25 scenecut=40 intra_refresh=0 rc_lookahead=50 rc=cbr mbtree=1 bitrate=2500 ratetol=1.0 qcomp=0.60 qpmin=0 qpmax=69 qpstep=4 vbv_maxrate=2500 vbv_bufsize=2500 nal_hrd=none filler=0 ip_ratio=1.40 aq=1:1.00\nOutput #0, mp4, to 'C:\\Users\\Peter\\Desktop\\stuff\\MIUN\\quantitative_research\\video_compression\\compressed_videos\\BVI-HD\\h264\\2.5\\Diver_1920x1080_30fps_h264.mp4':\n  Metadata:\n    major_brand     : isom\n    minor_version   : 512\n    compatible_brands: isomiso2avc1mp41\n    encoder         : Lavf62.3.100\n  Stream #0:0(und): Video: h264 (avc1 / 0x31637661), yuv420p(tv, progressive), 1920x1080, q=2-31, 2500 kb/s, 30 fps, 15360 tbn (default)\n    Metadata:\n      encoder         : Lavc62.11.100 libx264\n      handler_name    : VideoHandler\n      vendor_id       : [0][0][0][0]\n    Side data:\n      cpb: bitrate max/min/avg: 2500000/0/2500000 buffer size: 2500000 vbv_delay: N/A\nframe=    0 fps=0.0 q=0.0 size=       0KiB time=N/A bitrate=N/A speed=N/A elapsed=0:00:00.52    \nframe=    0 fps=0.0 q=0.0 size=       0KiB time=N/A bitrate=N/A speed=N/A elapsed=0:00:01.13    \nframe=    0 fps=0.0 q=0.0 size=       0KiB time=N/A bitrate=N/A speed=N/A elapsed=0:00:01.70    \nframe=   12 fps=5.1 q=32.0 size=       0KiB time=00:00:00.20 bitrate=   1.9kbits/s speed=0.0856x elapsed=0:00:02.33    \nframe=   33 fps= 11 q=31.0 size=       0KiB time=00:00:01.03 bitrate=   0.4kbits/s speed=0.356x elapsed=0:00:02.90    \nframe=   56 fps= 16 q=32.0 size=     256KiB time=00:00:01.80 bitrate=1165.3kbits/s speed=0.519x elapsed=0:00:03.47    \nframe=   80 fps= 20 q=32.0 size=     512KiB time=00:00:02.46 bitrate=1700.5kbits/s speed=0.612x elapsed=0:00:04.02    \nframe=  102 fps= 22 q=32.0 size=     768KiB time=00:00:03.33 bitrate=1887.6kbits/s speed=0.718x elapsed=0:00:04.64    \nframe=  133 fps= 26 q=32.0 size=    1024KiB time=00:00:04.23 bitrate=1981.7kbits/s speed=0.813x elapsed=0:00:05.20    \n[mp4 @ 000001fd9e7814c0] Starting second pass: moving the moov atom to the beginning of the file\n[out#0/mp4 @ 000001fd9e779b40] video:1395KiB audio:0KiB subtitle:0KiB other streams:0KiB global headers:0KiB muxing overhead: 0.187294%\nframe=  150 fps= 26 q=-1.0 Lsize=    1397KiB time=00:00:04.93 bitrate=2320.4kbits/s speed=0.868x elapsed=0:00:05.68    \n[libx264 @ 000001fd9e77cb40] frame I:1     Avg QP:28.62  size: 13074\n[libx264 @ 000001fd9e77cb40] frame P:38    Avg QP:27.82  size: 16985\n[libx264 @ 000001fd9e77cb40] frame B:111   Avg QP:29.56  size:  6928\n[libx264 @ 000001fd9e77cb40] consecutive B-frames:  1.3%  0.0%  0.0% 98.7%\n[libx264 @ 000001fd9e77cb40] mb I  I16..4: 83.3% 15.7%  1.0%\n[libx264 @ 000001fd9e77cb40] mb P  I16..4:  3.3%  5.4%  0.2%  P16..4: 45.7%  4.2%  5.5%  0.0%  0.0%    skip:35.7%\n[libx264 @ 000001fd9e77cb40] mb B  I16..4:  0.1%  0.5%  0.0%  B16..8: 40.6%  2.0%  0.2%  direct: 0.9%  skip:55.6%  L0:43.6% L1:55.2% BI: 1.2%\n[libx264 @ 000001fd9e77cb40] 8x8 transform intra:54.4% inter:88.1%\n[libx264 @ 000001fd9e77cb40] direct mvs  spatial:91.0% temporal:9.0%\n[libx264 @ 000001fd9e77cb40] coded y,uvDC,uvAC intra: 33.2% 33.2% 1.8% inter: 4.4% 11.9% 0.0%\n[libx264 @ 000001fd9e77cb40] i16 v,h,dc,p: 10% 27%  7% 55%\n[libx264 @ 000001fd9e77cb40] i8 v,h,dc,ddl,ddr,vr,hd,vl,hu:  6%  7%  7%  9% 16% 11% 18%  9% 15%\n[libx264 @ 000001fd9e77cb40] i4 v,h,dc,ddl,ddr,vr,hd,vl,hu:  8%  7% 12%  7% 14% 12% 14%  9% 17%\n[libx264 @ 000001fd9e77cb40] i8c dc,h,v,p: 49% 36%  9%  5%\n[libx264 @ 000001fd9e77cb40] Weighted P-Frames: Y:7.9% UV:0.0%\n[libx264 @ 000001fd9e77cb40] ref P L0: 52.0%  8.1% 25.6%  7.4%  6.8%  0.1%\n[libx264 @ 000001fd9e77cb40] ref B L0: 79.8% 14.3%  4.8%  1.1%\n[libx264 @ 000001fd9e77cb40] ref B L1: 93.8%  6.2%\n[libx264 @ 000001fd9e77cb40] kb/s:2283.96\n",
  "seconds": 6.224534273147583,
  "probe_out": {}
}